<svg width="29" height="29" viewBox="0 0 29 29" fill="none" xmlns="http://www.w3.org/2000/svg">
<path d="M29 0H0V29H29V0Z" fill="white"/>
<path fill-rule="evenodd" clip-rule="evenodd" d="M0 11.8148H29V17.1852H0V11.8148Z" fill="#AE0000"/>
<path fill-rule="evenodd" clip-rule="evenodd" d="M3.75926 0H10.2037V6.44444L3.75926 0ZM6.44444 10.2037H0V3.75926L6.44444 10.2037Z" fill="#035ABC"/>
<path fill-rule="evenodd" clip-rule="evenodd" d="M0 0H1.61111L10.2037 8.59259V10.2037H8.59259L0 1.61111V0Z" fill="#AE0000"/>
<path fill-rule="evenodd" clip-rule="evenodd" d="M3.75926 29H10.2037V22.5556L3.75926 29ZM6.44444 18.7963H0V25.2407L6.44444 18.7963Z" fill="#035ABC"/>
<path fill-rule="evenodd" clip-rule="evenodd" d="M0 29H1.61111L10.2037 20.4074V18.7963H8.59259L0 27.3889V29Z" fill="#AE0000"/>
<path fill-rule="evenodd" clip-rule="evenodd" d="M25.2407 0H18.7963V6.44444L25.2407 0ZM22.5556 10.2037H29V3.75926L22.5556 10.2037Z" fill="#035ABC"/>
<path fill-rule="evenodd" clip-rule="evenodd" d="M29 0H27.3889L18.7963 8.59259V10.2037H20.4074L29 1.61111V0Z" fill="#AE0000"/>
<path fill-rule="evenodd" clip-rule="evenodd" d="M25.2407 29H18.7963V22.5556L25.2407 29ZM22.5556 18.7963H29V25.2407L22.5556 18.7963Z" fill="#035ABC"/>
<path fill-rule="evenodd" clip-rule="evenodd" d="M29 29H27.3889L18.7963 20.4074V18.7963H20.4074L29 27.3889V29Z" fill="#AE0000"/>
<path fill-rule="evenodd" clip-rule="evenodd" d="M17.1852 0V29H11.8149L11.8149 0L17.1852 0Z" fill="#AE0000"/>
</svg>
